<?xml version="1.0" encoding="UTF-8" standalone="no"?>
<!DOCTYPE svg PUBLIC "-//W3C//DTD SVG 1.1 Tiny//EN" "http://www.w3.org/Graphics/SVG/1.1/DTD/svg11-tiny.dtd">
<svg xmlns="http://www.w3.org/2000/svg" xmlns:xlink="http://www.w3.org/1999/xlink" width="16" height="16" viewBox="-1.5 -1.5 16 16">
<rect fill="none" height="16" width="16" x="-1.5" y="-1.5"/>
<polygon fill="#CEE1EF" points="0,3.496 5.7,2.373 7.917,3.42 2.242,4.513 "/>
<polygon fill="#4A6EA3" points="2.189,12.897 0.159,11.681 0,3.496 2.232,4.513 "/>
<polygon fill="#CEE1EF" points="6.586,0.543 10.54,0 12.417,0.729 8.549,1.405 "/>
<polygon fill="#4A6EA3" points="8.639,1.414 7.702,3.34 5.693,2.377 6.586,0.543 "/>
<polygon fill="#A2C2DD" points="2.197,12.856 11.906,10.065 12.417,0.729 8.593,1.375 7.639,3.33 2.178,4.496 "/>
<path d="M6.182,9.926c0.047,0.463-0.247,0.918-0.663,1.014c-0.412,0.097-0.785-0.201-0.833-0.666 C4.634,9.809,4.929,9.355,5.342,9.258C5.758,9.162,6.132,9.461,6.182,9.926z" fill="#FFFFFF"/>
<path d="M4.461,8.153c0.702-0.162,1.392-0.01,1.949,0.436c0.551,0.445,0.908,1.127,0.991,1.921l1.082-0.252 C8.239,7.953,6.38,6.463,4.333,6.94L4.461,8.153z" fill="#FFFFFF"/>
<path d="M4.24,6c2.499-0.582,4.775,1.242,5.072,4.065l1.079-0.25c-0.366-3.495-3.184-5.749-6.28-5.028L4.24,6z" fill="#FFFFFF"/>
<polygon fill="#4A6EA3" points="14.273,6.771 13.369,5.867 11.398,7.838 9.428,5.867 8.525,6.771 10.494,8.741 8.525,10.712 9.428,11.616 11.398,9.645 13.369,11.616 14.273,10.712 12.301,8.741 "/>
</svg>