<?xml version="1.0" encoding="UTF-8"?>
<!DOCTYPE svg PUBLIC "-//W3C//DTD SVG 1.1 Tiny//EN" "http://www.w3.org/Graphics/SVG/1.1/DTD/svg11-tiny.dtd">
<svg baseProfile="tiny" height="16px" version="1.1" viewBox="-2.316 -1.685 16 16" width="16px" x="0px" xmlns="http://www.w3.org/2000/svg" xmlns:xlink="http://www.w3.org/1999/xlink" y="0px">
<polygon fill="#CB5F28" points="8.746,2.49 8.754,13.261 8.754,13.267 8.758,13.265 8.771,13.253 9.854,12.529 9.971,1.596 "/>
<polygon fill="#E8893F" points="8.754,2.454 10.01,1.558 1.318,0 0,0.712 0,0.712 "/>
<polygon fill="#F39C53" points="8.758,13.238 8.756,2.442 0.072,0.611 0.299,11.038 "/>
<polygon fill="#E8893F" points="1.002,10.238 0.814,1.691 8.139,3.241 8.178,12.104 "/>
<path d="M2.922,9.3c0,0.569-0.402,0.941-0.896,0.828c-0.494-0.111-0.893-0.664-0.893-1.233  s0.402-0.939,0.896-0.828C2.523,8.179,2.924,8.73,2.922,9.3z" fill="#FFFFFF"/>
<path d="M1.137,6.296c0.838,0.189,1.625,0.746,2.217,1.565c0.594,0.821,0.918,1.81,0.918,2.782l1.291,0.293  C5.566,8.11,3.58,5.36,1.139,4.807L1.137,6.296z" fill="#FFFFFF"/>
<path d="M1.141,3.657C4.129,4.333,6.557,7.7,6.553,11.162l1.293,0.293C7.85,7.172,4.844,3.006,1.143,2.168  L1.141,3.657z" fill="#FFFFFF"/>
<polygon fill="#4A6EA3" points="12.258,7.864 11.197,6.804 8.883,9.117 6.57,6.804 5.51,7.864 7.822,10.177 5.51,12.491   6.57,13.552 8.883,11.238 11.197,13.552 12.258,12.491 9.943,10.177 "/>
</svg>
