<?xml version="1.0" encoding="UTF-8"?>
<!DOCTYPE svg PUBLIC "-//W3C//DTD SVG 1.1 Tiny//EN" "http://www.w3.org/Graphics/SVG/1.1/DTD/svg11-tiny.dtd">
<svg baseProfile="tiny" height="44px" version="1.1" viewBox="0 0 44 44" width="44px" x="0px" xmlns="http://www.w3.org/2000/svg" xmlns:xlink="http://www.w3.org/1999/xlink" y="0px">
<rect fill="none" height="44" width="44"/>
<linearGradient gradientUnits="userSpaceOnUse" id="SVGID_1_" x1="20.0625" x2="20.0625" y1="4.48" y2="38.2715">
<stop offset="0" style="stop-color:#B2B2B2"/>
<stop offset="1" style="stop-color:#000000"/>
</linearGradient>
<path d="M15.037,29.541c1.279,2.375,4.204,1.645,5.85,2.193c0.592,0.197,0.987,0.75,1.259,1.373l3.406-3.406  l-5.51-5.51l-1.136-1.135c-0.715,0.07-1.387,0.213-1.705,0.451C15.34,24.904,13.758,27.164,15.037,29.541z" fill="url(#SVGID_1_)"/>
<linearGradient gradientUnits="userSpaceOnUse" id="SVGID_2_" x1="35.7461" x2="35.7461" y1="4.4795" y2="38.271">
<stop offset="0" style="stop-color:#B2B2B2"/>
<stop offset="1" style="stop-color:#000000"/>
</linearGradient>
<path d="M35.319,30.984c0.954-1.422,1.674-3.01,2.137-4.703l-3.42,3.42L35.319,30.984z" fill="url(#SVGID_2_)"/>
<linearGradient gradientUnits="userSpaceOnUse" id="SVGID_3_" x1="28.6484" x2="28.6484" y1="4.4878" y2="38.2701">
<stop offset="0" style="stop-color:#B2B2B2"/>
<stop offset="1" style="stop-color:#000000"/>
</linearGradient>
<path d="M26.188,37.547c1.781-0.486,3.44-1.264,4.92-2.291l-1.313-1.313L26.188,37.547z" fill="url(#SVGID_3_)"/>
<linearGradient gradientUnits="userSpaceOnUse" id="SVGID_4_" x1="21.856" x2="21.856" y1="4.478" y2="38.2716">
<stop offset="0" style="stop-color:#B2B2B2"/>
<stop offset="1" style="stop-color:#000000"/>
</linearGradient>
<path d="M20.042,35.211l0.138-0.139c-6.419-0.871-11.387-6.373-11.387-13.027  c0-2.002,0.463-3.896,1.269-5.598c2.53-0.617,8.003-2.928,9.7-4.455c1.406-1.268,0.866-2.418,0.375-2.967  c0.596-0.082,1.199-0.141,1.818-0.141c0.939,0,1.855,0.104,2.742,0.291c0.156,1.131,1.673,2.754,1.673,3.547  c0,0.914-1.358-0.068-2.925,0.549c-1.856,0.73-3.502,2.01-4.598,4.021c-0.206,0.381-0.021,1.859-0.184,2.559  c-0.146,0.627-0.914,0.549-1.097,0.732c-0.366,0.365-0.731,1.096-0.548,1.461c0.115,0.232,0.365,0.732,1.279,0.732  c0.773,0,1.159-1.299,2.032-1.701l1.127-1.127l1.414-1.414l1.414,1.414l1.377,1.377c0.19-0.051,0.403-0.072,0.679-0.012  c0.799,0.178,1.279,1.014,1.279,1.463c0,0.158-0.035,0.295-0.084,0.424l2.258,2.256l2.271-2.271  c-0.06-0.547,0.073-0.887,0.796-0.795l2.441-2.441l1.414-1.416l1.126,1.125C36.685,11.92,30.011,5.959,21.955,5.959  c-8.869,0-16.086,7.217-16.086,16.086c0,8.209,6.185,14.99,14.136,15.957l-1.376-1.377L20.042,35.211z" fill="url(#SVGID_4_)"/>
<linearGradient gradientUnits="userSpaceOnUse" id="SVGID_5_" x1="29.7939" x2="29.7939" y1="4.3135" y2="38.106">
<stop offset="0" style="stop-color:#B2B2B2"/>
<stop offset="1" style="stop-color:#000000"/>
</linearGradient>
<polygon fill="url(#SVGID_5_)" points="38.132,22.777 36.717,21.363 29.794,28.287 22.871,21.363 21.456,22.777 28.38,29.701   21.456,36.625 22.87,38.039 29.794,31.115 36.718,38.039 38.132,36.625 31.208,29.701 "/>
</svg>
