<?xml version="1.0" encoding="UTF-8"?>
<!DOCTYPE svg PUBLIC "-//W3C//DTD SVG 1.1 Tiny//EN" "http://www.w3.org/Graphics/SVG/1.1/DTD/svg11-tiny.dtd">
<svg baseProfile="tiny" height="44" version="1.1" viewBox="0 0 44 44" width="44" xmlns="http://www.w3.org/2000/svg" xmlns:xlink="http://www.w3.org/1999/xlink">
<rect fill="none" height="44" width="44"/>
<path d="M17.175,43.092H2.697C1.76,43.092,1,42.332,1,41.396V29.516c0-0.687,0.412-1.303,1.047-1.565  c0.209-0.087,0.431-0.13,0.649-0.13c0.44,0,0.873,0.172,1.199,0.498l2.769,2.771l12.808-20.261L12.45,3.803  c-0.486-0.485-0.631-1.215-0.368-1.848c0.263-0.635,0.879-1.047,1.567-1.047h27.656C42.24,0.908,43,1.668,43,2.604v25.429  c0,0.688-0.412,1.303-1.047,1.566c-0.209,0.088-0.43,0.129-0.648,0.129c-0.441,0-0.875-0.17-1.199-0.496l-7.941-7.942L15.166,36.991  l3.208,3.206c0.485,0.486,0.63,1.215,0.367,1.848C18.478,42.68,17.86,43.092,17.175,43.092L17.175,43.092z"/>
</svg>
