<?xml version="1.0" encoding="UTF-8"?>
<!DOCTYPE svg PUBLIC "-//W3C//DTD SVG 1.1 Tiny//EN" "http://www.w3.org/Graphics/SVG/1.1/DTD/svg11-tiny.dtd">
<svg baseProfile="tiny" height="16px" version="1.1" viewBox="-0.202 -1.5 16 16" width="16px" x="0px" xmlns="http://www.w3.org/2000/svg" xmlns:xlink="http://www.w3.org/1999/xlink" y="0px">
<polygon fill="#CEE1EF" points="14.298,3.496 8.599,2.373 6.382,3.42 12.056,4.513 "/>
<polygon fill="#4A6EA3" points="12.108,12.897 14.14,11.682 14.298,3.496 12.065,4.513 "/>
<polygon fill="#CEE1EF" points="7.712,0.543 3.759,0 1.882,0.729 5.749,1.405 "/>
<polygon fill="#4A6EA3" points="5.659,1.414 6.597,3.34 8.604,2.377 7.712,0.543 "/>
<polygon fill="#A2C2DD" points="12.101,12.856 2.394,10.065 1.882,0.729 5.706,1.375 6.659,3.33 12.12,4.496 "/>
<path d="M5.59,9.227c0,0.473-0.335,0.781-0.744,0.688C4.435,9.823,4.103,9.364,4.103,8.889  c0-0.472,0.335-0.779,0.746-0.686C5.257,8.295,5.59,8.754,5.59,9.227z" fill="#FFFFFF"/>
<path d="M4.105,6.731C4.803,6.889,5.456,7.35,5.949,8.032c0.493,0.683,0.763,1.504,0.759,2.313l1.077,0.242  c0-2.348-1.647-4.632-3.677-5.092L4.105,6.731z" fill="#FFFFFF"/>
<path d="M4.111,4.539c2.48,0.562,4.499,3.359,4.495,6.235l1.073,0.244c0.002-3.561-2.494-7.02-5.568-7.715V4.539z" fill="#FFFFFF"/>
<polygon fill="#4A6EA3" points="5.748,7.03 4.844,6.126 2.873,8.097 0.902,6.126 0,7.03 1.969,9 0,10.971 0.902,11.875 2.873,9.904   4.844,11.875 5.748,10.971 3.775,9 "/>
</svg>
